<svg xmlns="http://www.w3.org/2000/svg" viewBox="0 0 100 100">
  <!-- Фиолетовый фон -->
  <rect width="100" height="100" fill="#7c3aed" rx="20"/>
  
  <!-- Телефонная трубка (белая, повернута на 90° против часовой) -->
  <path transform="rotate(-90 50 50)" 
        d="M70 25 C72 23, 75 23, 77 25 L80 28 C82 30, 82 33, 80 35 L75 40 C73 42, 70 42, 68 40 L65 37 C63 35, 60 35, 58 37 L37 58 C35 60, 35 63, 37 65 L40 68 C42 70, 42 73, 40 75 L35 80 C33 82, 30 82, 28 80 L25 77 C23 75, 23 72, 25 70 L58 37 C60 35, 63 32, 65 30 L70 25 Z" 
        fill="white" 
        stroke="white" 
        stroke-width="2"/>
</svg>